<svg width="42" height="74" viewBox="0 0 42 74" fill="none" xmlns="http://www.w3.org/2000/svg">
<rect x="0.5" y="0.5" width="41" height="73" rx="4.5" stroke="#9747FF" stroke-dasharray="10 5"/>
<path d="M23.7503 26.5V27.5C23.7503 29.1569 22.4072 30.5 20.7503 30.5C19.0935 30.5 17.7503 29.1569 17.7503 27.5V26.5M23.7503 26.5H17.7503M23.7503 26.5H27.3408C27.7234 26.5 27.9155 26.5 28.0704 26.4478C28.3663 26.348 28.5978 26.1156 28.6976 25.8198C28.7501 25.6643 28.7501 25.4715 28.7501 25.0859C28.7501 24.9172 28.7499 24.8329 28.7367 24.7524C28.7117 24.6004 28.6527 24.4563 28.5629 24.3312C28.5154 24.2651 28.4551 24.2048 28.3362 24.0858L27.9466 23.6963C27.821 23.5706 27.7503 23.4001 27.7503 23.2224V19.5C27.7503 15.634 24.6163 12.5 20.7503 12.5C16.8844 12.5 13.7503 15.634 13.7503 19.5V23.2224C13.7503 23.4002 13.6796 23.5706 13.5539 23.6963L13.1644 24.0858C13.0451 24.2051 12.9854 24.265 12.9378 24.3312C12.848 24.4564 12.7885 24.6004 12.7635 24.7524C12.7503 24.8329 12.7503 24.9172 12.7503 25.086C12.7503 25.4715 12.7503 25.6642 12.8028 25.8197C12.9026 26.1156 13.1351 26.348 13.431 26.4478C13.5859 26.5 13.7774 26.5 14.1599 26.5H17.7503" stroke="#191919" stroke-linecap="round" stroke-linejoin="round"/>
<path d="M29.7423 47.5C29.7423 49.7091 27.9515 51.5 25.7423 51.5C23.5332 51.5 21.7423 49.7091 21.7423 47.5C21.7423 45.2909 23.5332 43.5 25.7423 43.5C27.9515 43.5 29.7423 45.2909 29.7423 47.5Z" fill="#FF6E70"/>
<path d="M25.75 43C28.2353 43 30.25 45.0147 30.25 47.5C30.25 49.0625 29.4524 50.4369 28.2451 51.2432C28.248 51.3286 28.25 51.4142 28.25 51.5V55.2227C28.2501 55.2678 28.2681 55.3111 28.2998 55.3428L28.8105 55.8535L28.9102 55.9639C29.1286 56.2306 29.25 56.5659 29.25 56.9141V57.5C29.25 58.3284 28.5784 59 27.75 59H24.25V59.5C24.25 61.433 22.683 63 20.75 63C18.817 63 17.25 61.433 17.25 59.5V59H13.75C12.9214 59 12.2501 58.3281 12.25 57.5V56.9141C12.25 56.5159 12.4085 56.1346 12.6895 55.8535L13.2002 55.3428L13.2373 55.2871C13.2457 55.2668 13.25 55.245 13.25 55.2227V51.5C13.25 47.3579 16.6079 44 20.75 44C21.4046 44 22.0402 44.0842 22.6465 44.2422C23.4535 43.4733 24.5466 43 25.75 43ZM18.25 59.5C18.25 60.8807 19.3693 62 20.75 62C22.1307 62 23.25 60.8807 23.25 59.5V59H18.25V59.5ZM20.75 45C17.1601 45 14.25 47.9102 14.25 51.5V55.2227C14.2499 55.5334 14.1263 55.8307 13.9072 56.0498L13.9062 56.0488L13.3965 56.5605C13.3024 56.6546 13.25 56.7818 13.25 56.9141V57.5C13.2501 57.7763 13.4741 58 13.75 58H27.75C28.0262 58 28.25 57.7762 28.25 57.5V56.9141C28.25 56.8148 28.2205 56.7184 28.166 56.6367L28.1035 56.5605L27.5928 56.0498C27.3733 55.8303 27.2501 55.5327 27.25 55.2227V51.7422C26.7804 51.9083 26.2757 52 25.75 52C23.2647 52 21.25 49.9853 21.25 47.5C21.25 46.6215 21.5021 45.8012 21.9375 45.1084C21.5527 45.0374 21.1559 45 20.75 45ZM25.75 44C24.7262 44 23.8057 44.4391 23.165 45.1406C22.5965 45.7632 22.25 46.5907 22.25 47.5C22.25 49.433 23.817 51 25.75 51C26.3812 51 26.9721 50.8334 27.4824 50.542C28.5393 49.9386 29.25 48.8019 29.25 47.5C29.25 45.567 27.683 44 25.75 44Z" fill="#191919"/>
</svg>
